<svg xmlns="http://www.w3.org/2000/svg" viewBox="0 0 102.55 198.17">
  <g id="Calque_2" data-name="Calque 2">
    <g id="Calque_1-2" data-name="Calque 1">
      <path fill="#999" d="M36.33,144.17l-.73-10.75a73.58,73.58,0,0,1,.73-18.57,30.7,30.7,0,0,1,6.11-13.44A54,54,0,0,1,55.88,89.92L60,87.24q3.91-2.68,4.89-8.31a68.59,68.59,0,0,0,1-11.73V42q0-12.21-15.15-12.22Q36.82,29.81,36.08,42q-.48,9.28-.48,17.59t.24,16.13H.41q-.25-5.13-.37-12T.16,48.87Q1.39,22.73,13,11.36T50.5,0q27.85,0,40,11.36t12.09,37.51V67.2q0,13.68-2.56,22T93.63,102a27.81,27.81,0,0,1-7.82,6.72q-4,2.2-7,3.91L73,115.83a11.21,11.21,0,0,0-6.23,7.57,81.74,81.74,0,0,0-1.59,10l-1,10.75Zm-6.6,54v-34H71.27v34Z"/>
    </g>
  </g>
</svg>
